<?xml version="1.0" encoding="UTF-8" standalone="no"?>
<svg
   xmlns:eadoc="http://www.siemens.com/eauml/doc"
   xmlns:dc="http://purl.org/dc/elements/1.1/"
   xmlns:cc="http://creativecommons.org/ns#"
   xmlns:rdf="http://www.w3.org/1999/02/22-rdf-syntax-ns#"
   xmlns:svg="http://www.w3.org/2000/svg"
   xmlns="http://www.w3.org/2000/svg"
   xmlns:sodipodi="http://sodipodi.sourceforge.net/DTD/sodipodi-0.dtd"
   xmlns:inkscape="http://www.inkscape.org/namespaces/inkscape"
   version="1.1"
   preserveAspectRatio="xMidYMid"
   xml:space="preserve"
   width="412.860923pt"
   height="321.86878pt"
   viewBox="-5.120023 -5.11988 412.860923 321.86878"
   id="svg2"
   inkscape:version="0.48.5 r10040"
   sodipodi:docname="ea_CAC_CompletToString.pdf"><metadata
     id="metadata238"><rdf:RDF><cc:Work
         rdf:about=""><dc:format>image/svg+xml</dc:format><dc:type
           rdf:resource="http://purl.org/dc/dcmitype/StillImage" /><dc:title></dc:title></cc:Work></rdf:RDF></metadata><defs
     id="defs236" /><sodipodi:namedview
     pagecolor="#ffffff"
     bordercolor="#666666"
     borderopacity="1"
     objecttolerance="10"
     gridtolerance="10"
     guidetolerance="10"
     inkscape:pageopacity="0"
     inkscape:pageshadow="2"
     inkscape:window-width="1536"
     inkscape:window-height="809"
     id="namedview234"
     showgrid="false"
     inkscape:zoom="0.99156138"
     inkscape:cx="169.6745"
     inkscape:cy="262.76602"
     inkscape:window-x="-8"
     inkscape:window-y="-8"
     inkscape:window-maximized="1"
     inkscape:current-layer="g6" /><desc
     id="desc4"><eadoc:guid>EAID_5C7DFBD0_06F6_471d_9EAA_71C9E6AB99B2</eadoc:guid><eadoc:name>toString Story Diagram</eadoc:name><eadoc:type>Diagram</eadoc:type><eadoc:note /></desc><g
     transform="matrix(1 0 0 -1 0 792)"
     id="g6"><g
       transform="matrix(0.5759955,0,0,-0.576024,0,792)"
       font-size="10"
       id="g22"
       style="font-size:10px;font-style:normal;font-weight:normal;letter-spacing:normal;fill:none;stroke:#000000;stroke-width:1;stroke-linecap:round;stroke-linejoin:round;stroke-miterlimit:3;font-family:ArialUnicode"><path
         d="m 99,79 c 0,-5 -4,-9 -9,-9 -6,0 -10,4 -10,9 0,5 4,10 10,10 5,0 9,-5 9,-10 z"
         id="path24"
         inkscape:connector-curvature="0"
         style="fill:#000000;stroke:none" /><path
         d="m 99,79 c 0,-5 -4,-9 -9,-9 -6,0 -10,4 -10,9 0,5 4,10 10,10 5,0 9,-5 9,-10 z"
         id="path26"
         inkscape:connector-curvature="0" /><text
         transform="translate(74,53)"
         id="text28"
         style="fill:#000000;stroke:none"><tspan
           dx="0"
           x="0"
           y="9"
           id="tspan30">Box::toString (): EString</tspan></text>
<path
         d="m 514,105 c 0,-9 -7,-15 -15,-15 H 164 c -8,0 -15,6 -15,15 v 130 c 0,8 7,15 15,15 h 335 c 8,0 15,-7 15,-15 z"
         id="path32"
         inkscape:connector-curvature="0"
         style="fill:#ffffff;stroke:none" /><path
         d="m 514,105 c 0,-9 -7,-15 -15,-15 H 164 c -8,0 -15,6 -15,15 v 130 c 0,8 7,15 15,15 h 335 c 8,0 15,-7 15,-15 z"
         id="path34"
         inkscape:connector-curvature="0" /><path
         d="m 494,113 c 0,-8 -7,-15 -15,-15 H 145 c -8,0 -15,7 -15,15 v 131 c 0,9 7,15 15,15 h 334 c 8,0 15,-6 15,-15 z"
         id="path36"
         inkscape:connector-curvature="0"
         style="fill:#ffffff;stroke:none" /><path
         d="m 494,114 c 0,-9 -7,-16 -15,-16 H 145 c -7,0 -15,7 -15,16 v 130 c 0,9 8,15 15,15 h 334 c 8,0 15,-6 15,-15 z"
         id="path38"
         inkscape:connector-curvature="0" /><text
         transform="translate(286,92)"
         id="text40"
         style="fill:#000000;stroke:none"><desc
           id="desc42"><eadoc:guid>EAID_EBF19C25_0FF5_4109_AEF5_DCBA2A2859E6</eadoc:guid><eadoc:name>ForAllPartitions</eadoc:name><eadoc:type>Activity</eadoc:type><eadoc:note /></desc><tspan
           dx="0"
           x="0"
           y="9"
           id="tspan44">ForAllPartitions</tspan></text>
<rect
         x="158"
         y="116"
         width="90"
         height="55"
         id="rect46"
         style="fill:#ffffff;stroke:none" /><rect
         x="158"
         y="116"
         width="90"
         height="55"
         id="rect48"
         style="stroke-width:3" /><text
         transform="translate(181,136)"
         id="text50"
         style="fill:#000000;stroke:none"><desc
           id="desc52"><eadoc:guid>EAID_6C63F0E6_57F6_4ee2_9036_226037530BD4</eadoc:guid><eadoc:name>this</eadoc:name><eadoc:type>Object</eadoc:type><eadoc:note /></desc><tspan
           dx="0"
           x="0"
           y="9"
           id="tspan54">this : Box</tspan></text>
<rect
         x="350"
         y="120"
         width="100"
         height="55"
         id="rect56"
         style="fill:#ffffff;stroke:none" /><rect
         x="350"
         y="120"
         width="100"
         height="55"
         id="rect58" /><text
         transform="translate(356,140)"
         id="text60"
         style="fill:#000000;stroke:none"><desc
           id="desc62"><eadoc:guid>EAID_B7C199CF_1C71_49ec_9284_1F9C7D9B156C</eadoc:guid><eadoc:name>partition</eadoc:name><eadoc:type>Object</eadoc:type><eadoc:note /></desc><tspan
           dx="0"
           x="0"
           y="9"
           id="tspan64">partition : Partition</tspan></text>
<path
         d="m 580,209.5 c 0,-5.25 4.25,-9.5 9.5,-9.5 5.25,0 9.5,4.25 9.5,9.5 0,5.25 -4.25,9.5 -9.5,9.5 -5.25,0 -9.5,-4.25 -9.5,-9.5"
         id="path66"
         inkscape:connector-curvature="0"
         style="fill:#ffffff;stroke:none" /><path
         d="m 580,209.5 c 0,-5.25 4.25,-9.5 9.5,-9.5 5.25,0 9.5,4.25 9.5,9.5 0,5.25 -4.25,9.5 -9.5,9.5 -5.25,0 -9.5,-4.25 -9.5,-9.5"
         id="path68"
         inkscape:connector-curvature="0" /><path
         d="m 593,209 c 0,-1 -2,-3 -3,-3 -2,0 -4,2 -4,3 0,2 2,3 4,3 1,0 3,-1 3,-3 z"
         id="path70"
         inkscape:connector-curvature="0"
         style="fill:#000000;stroke:none" /><path
         d="m 593,209 c 0,-1 -2,-3 -3,-3 -1,0 -4,2 -4,3 0,2 3,3 4,3 1,0 3,-1 3,-3 z"
         id="path72"
         inkscape:connector-curvature="0" /><text
         transform="translate(558,220)"
         id="text74"
         style="fill:#000000;stroke:none"><tspan
           dx="0"
           x="0"
           y="9"
           id="tspan76">this.stringRep</tspan></text>
<path
         d="m 469,334 c 0,-9 -7,-15 -15,-15 H 162 c -8,0 -15,6 -15,15 v 176 c 0,8 7,15 15,15 h 292 c 8,0 15,-7 15,-15 z"
         id="path78"
         inkscape:connector-curvature="0"
         style="fill:#ffffff;stroke:none" /><path
         d="m 469,334 c 0,-9 -7,-15 -15,-15 H 163 c -9,0 -16,6 -16,15 v 176 c 0,8 7,15 16,15 h 291 c 8,0 15,-7 15,-15 z"
         id="path80"
         inkscape:connector-curvature="0" /><path
         d="m 452,344 c 0,-8 -7,-15 -15,-15 H 145 c -8,0 -15,7 -15,15 v 177 c 0,9 7,15 15,15 h 292 c 8,0 15,-6 15,-15 z"
         id="path82"
         inkscape:connector-curvature="0"
         style="fill:#ffffff;stroke:none" /><path
         d="m 452,344 c 0,-8 -7,-15 -15,-15 H 145 c -7,0 -15,7 -15,15 v 177 c 0,9 8,15 15,15 h 292 c 8,0 15,-6 15,-15 z"
         id="path84"
         inkscape:connector-curvature="0" /><text
         transform="translate(273,321)"
         id="text86"
         style="fill:#000000;stroke:none"><desc
           id="desc88"><eadoc:guid>EAID_78206F25_0A7F_4ca7_9272_FD7954FAA0E6</eadoc:guid><eadoc:name>ForAllCards</eadoc:name><eadoc:type>Activity</eadoc:type><eadoc:note /></desc><tspan
           dx="0"
           x="0"
           y="9"
           id="tspan90">ForAllCards</tspan></text>
<path
         d="m 694,404 c 0,-8 -7,-14 -15,-14 H 565 c -8,0 -15,6 -15,14 v 50 c 0,8 7,15 15,15 h 114 c 8,0 15,-7 15,-15 z"
         id="path92"
         inkscape:connector-curvature="0"
         style="fill:#ffffff;stroke:none" /><path
         d="m 694,404 c 0,-8 -6,-14 -15,-14 H 565 c -8,0 -15,6 -15,14 v 50 c 0,8 7,15 15,15 h 114 c 9,0 15,-7 15,-15 z"
         id="path94"
         inkscape:connector-curvature="0" /><text
         transform="translate(561,423)"
         id="text96"
         style="fill:#000000;stroke:none"><tspan
           dx="0"
           x="0"
           y="9"
           id="tspan98">this.addToStringRep(card)</tspan></text>
<text
         transform="translate(583,392)"
         id="text100"
         style="fill:#000000;stroke:none"><desc
           id="desc102"><eadoc:guid>EAID_AA90C15F_C59D_45db_8676_D2FF8C5AA117</eadoc:guid><eadoc:name>addToStringRep</eadoc:name><eadoc:type>Activity</eadoc:type><eadoc:note>this.addToStringRep(card)</eadoc:note></desc><tspan
           dx="0"
           x="0"
           y="9"
           id="tspan104">addToStringRep</tspan></text>
<rect
         x="155"
         y="352"
         width="100"
         height="55"
         id="rect106"
         style="fill:#ffffff;stroke:none" /><rect
         x="155"
         y="352"
         width="100"
         height="55"
         id="rect108"
         style="stroke-width:3" /><text
         transform="translate(161,372)"
         id="text110"
         style="fill:#000000;stroke:none"><desc
           id="desc112"><eadoc:guid>EAID_6E244975_BB6B_47da_B8B2_B77E2F0FDA2F</eadoc:guid><eadoc:name>partition</eadoc:name><eadoc:type>Object</eadoc:type><eadoc:note /></desc><tspan
           dx="0"
           x="0"
           y="9"
           id="tspan114">partition : Partition</tspan></text>
<rect
         x="335"
         y="352"
         width="90"
         height="55"
         id="rect116"
         style="fill:#ffffff;stroke:none" /><rect
         x="335"
         y="352"
         width="90"
         height="55"
         id="rect118" /><text
         transform="translate(354,372)"
         id="text120"
         style="fill:#000000;stroke:none"><desc
           id="desc122"><eadoc:guid>EAID_17B67C98_D9E1_4625_B07F_DAE19AE4B243</eadoc:guid><eadoc:name>card</eadoc:name><eadoc:type>Object</eadoc:type><eadoc:note /></desc><tspan
           dx="0"
           x="0"
           y="9"
           id="tspan124">card : Card</tspan></text>
<rect
         x="160"
         y="200"
         width="310"
         height="50"
         id="rect126"
         style="fill:#ffffff;stroke:none" /><rect
         x="160"
         y="200"
         width="310"
         height="50"
         id="rect128" /><text
         transform="translate(475,185)"
         id="text130"
         style="fill:#000000;stroke:none"><tspan
           dx="0"
           x="0"
           y="9"
           id="tspan132">-1</tspan></text>
<text
         transform="translate(162,202)"
         id="text134"
         style="fill:#000000;stroke:none"><tspan
           dx="0"
           x="0"
           y="9"
           id="tspan136">{importPackage Ecore;</tspan><tspan
           dx="0"
           x="0"
           y="22"
           id="tspan138">+(this.stringRep', this.stringRep, &quot;Content: &quot;::EString);}</tspan></text>
<rect
         x="140"
         y="430"
         width="290"
         height="60"
         id="rect140"
         style="fill:#ffffff;stroke:none" /><rect
         x="140"
         y="430"
         width="290"
         height="60"
         id="rect142" /><text
         transform="translate(434,415)"
         id="text144"
         style="fill:#000000;stroke:none"><tspan
           dx="0"
           x="0"
           y="9"
           id="tspan146">-1</tspan></text>
<text
         transform="translate(140,432)"
         id="text148"
         style="fill:#000000;stroke:none"><tspan
           dx="0"
           x="0"
           y="9"
           id="tspan150">{importPackage Ecore;</tspan><tspan
           dx="0"
           x="0"
           y="22"
           id="tspan152">myConcat(this.stringRep', this.stringRep, card.face, card.back)}</tspan></text>
<path
         d="M 335,379 H 255"
         id="path154"
         inkscape:connector-curvature="0" /><path
         d="m 550,447 h -80 m 0,0 14,-5 m -14,5 14,5"
         id="path156"
         inkscape:connector-curvature="0" /><path
         d="m 470,407 80,1 m 0,0 -14,5 m 14,-5 -14,-5"
         id="path158"
         inkscape:connector-curvature="0" /><path
         d="m 347,319 3,-59 m 0,0 4,14 m -4,-14 -6,14"
         id="path160"
         inkscape:connector-curvature="0" /><path
         d="M 350,147 H 248"
         id="path162"
         inkscape:connector-curvature="0" /><path
         d="m 265,260 -2,59 m 0,0 -5,-14 m 5,14 5,-14"
         id="path164"
         inkscape:connector-curvature="0" /><path
         d="m 515,208 65,1 m 0,0 -14,5 m 14,-5 -14,-5"
         id="path166"
         inkscape:connector-curvature="0" /><path
         d="m 100,84 30,12 m 0,0 -15,-1 m 15,1 -11,-10"
         id="path168"
         inkscape:connector-curvature="0" /><g
         transform="matrix(1,0,0,-1,337,293)"
         id="g170"><rect
           x="0"
           width="26"
           y="-12"
           height="12"
           id="rect172"
           style="fill:#ffffff;stroke:none" /></g><text
         transform="translate(337,293)"
         id="text174"
         style="fill:#000000;stroke:none"><tspan
           dx="0"
           x="0"
           y="9"
           id="tspan176">[End]</tspan></text>
<g
         transform="matrix(1,0,0,-1,252,152)"
         id="g178"><rect
           x="0"
           width="97"
           y="-12"
           height="12"
           id="rect180"
           style="fill:#ffffff;stroke:none" /></g><text
         transform="translate(252,152)"
         id="text182"
         style="fill:#000000;stroke:none"><tspan
           dx="0"
           x="0"
           y="9"
           id="tspan184">+containedPartition</tspan></text>
<g
         transform="matrix(1,0,0,-1,251,129)"
         id="g186"><rect
           x="0"
           width="24"
           y="-12"
           height="12"
           id="rect188"
           style="fill:#ffffff;stroke:none" /></g><text
         transform="translate(251,129)"
         id="text190"
         style="fill:#000000;stroke:none"><tspan
           dx="0"
           x="0"
           y="9"
           id="tspan192">+box</tspan></text>
<g
         transform="matrix(1,0,0,-1,536,212)"
         id="g194"><rect
           x="0"
           width="26"
           y="-12"
           height="12"
           id="rect196"
           style="fill:#ffffff;stroke:none" /></g><text
         transform="translate(536,212)"
         id="text198"
         style="fill:#000000;stroke:none"><tspan
           dx="0"
           x="0"
           y="9"
           id="tspan200">[End]</tspan></text>
<g
         transform="matrix(1,0,0,-1,236,283)"
         id="g202"><rect
           x="0"
           width="60"
           y="-12"
           height="12"
           id="rect204"
           style="fill:#ffffff;stroke:none" /></g><text
         transform="translate(236,283)"
         id="text206"
         style="fill:#000000;stroke:none"><tspan
           dx="0"
           x="0"
           y="9"
           id="tspan208">[Each Time]</tspan></text>
<g
         transform="matrix(1,0,0,-1,481,411)"
         id="g210"><rect
           x="0"
           width="60"
           y="-12"
           height="12"
           id="rect212"
           style="fill:#ffffff;stroke:none" /></g><text
         transform="translate(481,411)"
         id="text214"
         style="fill:#000000;stroke:none"><tspan
           dx="0"
           x="0"
           y="9"
           id="tspan216">[Each Time]</tspan></text>
<g
         transform="matrix(1,0,0,-1,306,361)"
         id="g218"><rect
           x="0"
           width="27"
           y="-12"
           height="12"
           id="rect220"
           style="fill:#ffffff;stroke:none" /></g><text
         transform="translate(306,361)"
         id="text222"
         style="fill:#000000;stroke:none"><tspan
           dx="0"
           x="0"
           y="9"
           id="tspan224">+card</tspan></text>
<g
         transform="matrix(1,0,0,-1,262,384)"
         id="g226"><rect
           x="0"
           width="75"
           y="-12"
           height="12"
           id="rect228"
           style="fill:#ffffff;stroke:none" /></g><text
         transform="translate(262,384)"
         id="text230"
         style="fill:#000000;stroke:none"><tspan
           dx="0"
           x="0"
           y="9"
           id="tspan232">+cardContainer</tspan></text>
</g></g></svg>