<?xml version="1.0" encoding="utf-8"?><svg version="1.1" preserveAspectRatio="xMidYMid" xml:space="preserve" width="1137.10602pt" height="748.637874pt" viewBox="3.51698 0.2862259999999992 1137.10602 748.637874" xmlns="http://www.w3.org/2000/svg" xmlns:xlink="http://www.w3.org/1999/xlink"><desc xmlns:eadoc="http://www.siemens.com/eauml/doc"><eadoc:guid>EAID_2F16C99F_3E67_463f_B37D_F4DA0EF043E7</eadoc:guid><eadoc:name>ControlFlow</eadoc:name><eadoc:type>Diagram</eadoc:type><eadoc:note></eadoc:note></desc><g transform="matrix(1 0 0 -1 0 819)"><g stroke="#000000" fill="none" fill-rule="evenodd" stroke-width="1" stroke-linecap="round" stroke-linejoin="round" stroke-miterlimit="3" letter-spacing="normal" font-weight="normal" font-style="normal" baseline-shift="0"><g transform="matrix(0.75 0 0 0.75 0 819.349976)"><g transform="matrix(0.959748 0 0 -0.959578 0 0)" font-family="ArialUnicode" font-size="10"><rect fill="#FFFFFF" stroke="none" x="1126" y="277" width="202" height="92" /><rect x="1126" y="277" width="202" height="93" /><text transform="matrix(1 0 0 1 1206 283)" fill="#000000" stroke="none"><tspan dx="0 " x="0" y="9">«EClass»</tspan></text><text transform="matrix(1 0 0 1 1207 296)" fill="#000000" font-weight="bold" stroke="none"><desc xmlns:eadoc="http://www.siemens.com/eauml/doc"><eadoc:guid>EAID_69526C3B_D028_4e90_B1AD_66204F3C0DB3</eadoc:guid><eadoc:name>CFNode</eadoc:name><eadoc:type>Class</eadoc:type><eadoc:note></eadoc:note></desc><tspan dx="0 " x="0" y="9">CFNode</tspan></text><path d="M1126 313h202" /><text transform="matrix(1 0 0 1 1131 317)" fill="#8B0000" stroke="none"><tspan dx="0 " x="0" y="9">- </tspan></text><text transform="matrix(1 0 0 1 1148 317)" fill="#8B0000" stroke="none"><tspan dx="0 " x="0" y="9">id: EInt</tspan></text><path d="M1126 334h202" /><text transform="matrix(1 0 0 1 1131 338)" fill="#004040" stroke="none"><tspan dx="0 " x="0" y="9">+ </tspan></text><text transform="matrix(1 0 0 1 1148 338)" fill="#004040" stroke="none"><tspan dx="0 " x="0" y="9">accept(Visitor): void</tspan></text><text transform="matrix(1 0 0 1 1131 351)" fill="#004040" stroke="none"><tspan dx="0 " x="0" y="9">+ </tspan></text><text transform="matrix(1 0 0 1 1148 351)" fill="#004040" stroke="none"><tspan dx="0 " x="0" y="9">getRelevantScope(): Scope</tspan></text><rect fill="#FFFFFF" stroke="none" x="1282" y="801" width="153" height="69" /><rect x="1282" y="801" width="153" height="70" /><text transform="matrix(1 0 0 1 1337 807)" fill="#000000" stroke="none"><tspan dx="0 " x="0" y="9">«EClass»</tspan></text><text transform="matrix(1 0 0 1 1337 820)" fill="#000000" font-weight="bold" stroke="none"><desc xmlns:eadoc="http://www.siemens.com/eauml/doc"><eadoc:guid>EAID_3765F9C3_7FFA_4a6e_A6BE_4F69843480F4</eadoc:guid><eadoc:name>ForEach</eadoc:name><eadoc:type>Class</eadoc:type><eadoc:note></eadoc:note></desc><tspan dx="0 " x="0" y="9">ForEach</tspan></text><path d="M1282 837h153" /><text transform="matrix(1 0 0 1 1287 841)" fill="#004040" stroke="none"><tspan dx="0 " x="0" y="9">+ </tspan></text><text transform="matrix(1 0 0 1 1304 841)" fill="#004040" stroke="none"><tspan dx="0 " x="0" y="9">accept(Visitor): void</tspan></text><rect fill="#FFFFFF" stroke="none" x="859" y="803" width="159" height="69" /><rect x="859" y="803" width="159" height="70" /><text transform="matrix(1 0 0 1 917 809)" fill="#000000" stroke="none"><tspan dx="0 " x="0" y="9">«EClass»</tspan></text><text transform="matrix(1 0 0 1 910 822)" fill="#000000" font-weight="bold" stroke="none"><desc xmlns:eadoc="http://www.siemens.com/eauml/doc"><eadoc:guid>EAID_D5A40319_4195_42b1_BC96_97D1E5659993</eadoc:guid><eadoc:name>IfStatement</eadoc:name><eadoc:type>Class</eadoc:type><eadoc:note></eadoc:note></desc><tspan dx="0 " x="0" y="9">IfStatement</tspan></text><path d="M859 839h159" /><text transform="matrix(1 0 0 1 864 843)" fill="#004040" stroke="none"><tspan dx="0 " x="0" y="9">+ </tspan></text><text transform="matrix(1 0 0 1 881 843)" fill="#004040" stroke="none"><tspan dx="0 " x="0" y="9">accept(Visitor): void</tspan></text><text transform="matrix(1 0 0 1 864 856)" fill="#004040" stroke="none"><tspan dx="0 " x="0" y="9">+ </tspan></text><text transform="matrix(1 0 0 1 881 856)" fill="#004040" stroke="none"><tspan dx="0 " x="0" y="9">getRelevantScope(): Scope</tspan></text><rect fill="#FFFFFF" stroke="none" x="848" y="590" width="153" height="69" /><rect x="848" y="590" width="153" height="70" /><text transform="matrix(1 0 0 1 903 596)" fill="#000000" stroke="none"><tspan dx="0 " x="0" y="9">«EClass»</tspan></text><text transform="matrix(1 0 0 1 909 609)" fill="#000000" font-weight="bold" stroke="none"><desc xmlns:eadoc="http://www.siemens.com/eauml/doc"><eadoc:guid>EAID_8660119C_C99A_4116_9F79_122AB3A1952F</eadoc:guid><eadoc:name>Scope</eadoc:name><eadoc:type>Class</eadoc:type><eadoc:note></eadoc:note></desc><tspan dx="0 " x="0" y="9">Scope</tspan></text><path d="M848 626h153" /><text transform="matrix(1 0 0 1 853 630)" fill="#004040" stroke="none"><tspan dx="0 " x="0" y="9">+ </tspan></text><text transform="matrix(1 0 0 1 870 630)" fill="#004040" stroke="none"><tspan dx="0 " x="0" y="9">accept(Visitor): void</tspan></text><rect fill="#FFFFFF" stroke="none" x="1092" y="590" width="161" height="69" /><rect x="1092" y="590" width="161" height="70" /><text transform="matrix(1 0 0 1 1151 596)" fill="#000000" stroke="none"><tspan dx="0 " x="0" y="9">«EClass»</tspan></text><text transform="matrix(1 0 0 1 1133 609)" fill="#000000" font-weight="bold" font-style="italic" stroke="none"><desc xmlns:eadoc="http://www.siemens.com/eauml/doc"><eadoc:guid>EAID_47A896BD_FA7A_4a28_9CDD_FDB6FFAECCE7</eadoc:guid><eadoc:name>CompoundNode</eadoc:name><eadoc:type>Class</eadoc:type><eadoc:note></eadoc:note></desc><tspan dx="0 " x="0" y="9">CompoundNode</tspan></text><path d="M1092 625h161" /><text transform="matrix(1 0 0 1 1097 629)" fill="#004040" stroke="none"><tspan dx="0 " x="0" y="9">+ </tspan></text><text transform="matrix(1 0 0 1 1114 629)" fill="#004040" stroke="none"><tspan dx="0 " x="0" y="9">getRelevantScope(): Scope</tspan></text><rect fill="#FFFFFF" stroke="none" x="545" y="702" width="153" height="92" /><rect x="545" y="702" width="153" height="93" /><text transform="matrix(1 0 0 1 600 708)" fill="#000000" stroke="none"><tspan dx="0 " x="0" y="9">«EClass»</tspan></text><text transform="matrix(1 0 0 1 594 721)" fill="#000000" font-weight="bold" stroke="none"><desc xmlns:eadoc="http://www.siemens.com/eauml/doc"><eadoc:guid>EAID_59946170_A6C1_4fa5_8E73_C16C25FF19E4</eadoc:guid><eadoc:name>CFVariable</eadoc:name><eadoc:type>Class</eadoc:type><eadoc:note></eadoc:note></desc><tspan dx="0 " x="0" y="9">CFVariable</tspan></text><path d="M545 738H698" /><text transform="matrix(1 0 0 1 550 742)" fill="#8B0000" stroke="none"><tspan dx="0 " x="0" y="9">- </tspan></text><text transform="matrix(1 0 0 1 567 742)" fill="#8B0000" stroke="none"><tspan dx="0 " x="0" y="9">local: EBoolean</tspan></text><text transform="matrix(1 0 0 1 550 755)" fill="#8B0000" stroke="none"><tspan dx="0 " x="0" y="9">- </tspan></text><text transform="matrix(1 0 0 1 567 755)" fill="#8B0000" stroke="none"><tspan dx="0 " x="0" y="9">name: EString</tspan></text><path d="M545 772H698" /><text transform="matrix(1 0 0 1 550 776)" fill="#004040" stroke="none"><tspan dx="0 " x="0" y="9">+ </tspan></text><text transform="matrix(1 0 0 1 567 776)" fill="#004040" stroke="none"><tspan dx="0 " x="0" y="9">isOnlyDefined(): EBoolean</tspan></text><rect fill="#FFFFFF" stroke="none" x="1087" y="795" width="153" height="79" /><rect x="1087" y="795" width="153" height="80" /><text transform="matrix(1 0 0 1 1142 801)" fill="#000000" stroke="none"><tspan dx="0 " x="0" y="9">«EClass»</tspan></text><text transform="matrix(1 0 0 1 1151 814)" fill="#000000" font-weight="bold" font-style="italic" stroke="none"><desc xmlns:eadoc="http://www.siemens.com/eauml/doc"><eadoc:guid>EAID_0745AE83_9C0C_4c70_AB7B_BC239BF9AF69</eadoc:guid><eadoc:name>Loop</eadoc:name><eadoc:type>Class</eadoc:type><eadoc:note></eadoc:note></desc><tspan dx="0 " x="0" y="9">Loop</tspan></text><path d="M1087 830h153" /><text transform="matrix(1 0 0 1 1092 834)" fill="#8B0000" stroke="none"><tspan dx="0 " x="0" y="9">- </tspan></text><text transform="matrix(1 0 0 1 1109 834)" fill="#8B0000" stroke="none"><tspan dx="0 " x="0" y="9">loopAlongTrue: EBoolean</tspan></text><path d="M1087 851h153" /><text transform="matrix(1 0 0 1 1092 855)" fill="#004040" stroke="none"><tspan dx="0 " x="0" y="9">+ </tspan></text><text transform="matrix(1 0 0 1 1109 855)" fill="#004040" stroke="none"><tspan dx="0 " x="0" y="9">getRelevantScope(): Scope</tspan></text><rect fill="#FFFFFF" stroke="none" x="976" y="960" width="153" height="69" /><rect x="976" y="960" width="153" height="70" /><text transform="matrix(1 0 0 1 1031 966)" fill="#000000" stroke="none"><tspan dx="0 " x="0" y="9">«EClass»</tspan></text><text transform="matrix(1 0 0 1 1001 979)" fill="#000000" font-weight="bold" stroke="none"><desc xmlns:eadoc="http://www.siemens.com/eauml/doc"><eadoc:guid>EAID_0DD8768C_5131_45a8_A869_A9F8E7926604</eadoc:guid><eadoc:name>HeadControlledLoop</eadoc:name><eadoc:type>Class</eadoc:type><eadoc:note></eadoc:note></desc><tspan dx="0 " x="0" y="9">HeadControlledLoop</tspan></text><path d="M976 996h153" /><text transform="matrix(1 0 0 1 981 1000)" fill="#004040" stroke="none"><tspan dx="0 " x="0" y="9">+ </tspan></text><text transform="matrix(1 0 0 1 998 1000)" fill="#004040" stroke="none"><tspan dx="0 " x="0" y="9">accept(Visitor): void</tspan></text><rect fill="#FFFFFF" stroke="none" x="1182" y="959" width="163" height="69" /><rect x="1182" y="959" width="163" height="70" /><text transform="matrix(1 0 0 1 1242 965)" fill="#000000" stroke="none"><tspan dx="0 " x="0" y="9">«EClass»</tspan></text><text transform="matrix(1 0 0 1 1216 978)" fill="#000000" font-weight="bold" stroke="none"><desc xmlns:eadoc="http://www.siemens.com/eauml/doc"><eadoc:guid>EAID_2C740C9F_FCB2_4aaa_84B2_56FBCC950A7F</eadoc:guid><eadoc:name>TailControlledLoop</eadoc:name><eadoc:type>Class</eadoc:type><eadoc:note></eadoc:note></desc><tspan dx="0 " x="0" y="9">TailControlledLoop</tspan></text><path d="M1182 995h163" /><text transform="matrix(1 0 0 1 1187 999)" fill="#004040" stroke="none"><tspan dx="0 " x="0" y="9">+ </tspan></text><text transform="matrix(1 0 0 1 1204 999)" fill="#004040" stroke="none"><tspan dx="0 " x="0" y="9">accept(Visitor): void</tspan></text><rect fill="#FFFFFF" stroke="none" x="218" y="275" width="229" height="69" /><rect x="218" y="275" width="229" height="70" /><text transform="matrix(1 0 0 1 311 281)" fill="#000000" stroke="none"><tspan dx="0 " x="0" y="9">«EClass»</tspan></text><text transform="matrix(1 0 0 1 288 294)" fill="#000000" font-weight="bold" font-style="italic" stroke="none"><desc xmlns:eadoc="http://www.siemens.com/eauml/doc"><eadoc:guid>EAID_F248542C_8799_4c61_9BB0_B8524CFF943E</eadoc:guid><eadoc:name>PatternInvocation</eadoc:name><eadoc:type>Class</eadoc:type><eadoc:note></eadoc:note></desc><tspan dx="0 " x="0" y="9">PatternInvocation</tspan></text><path d="M218 310H447" /><text transform="matrix(1 0 0 1 223 314)" fill="#004040" stroke="none"><tspan dx="0 " x="0" y="9">+ </tspan></text><text transform="matrix(1 0 0 1 240 314)" fill="#004040" stroke="none"><tspan dx="0 " x="0" y="9">hasReferencedFreeParameters(): EBoolean</tspan></text><text transform="matrix(1 0 0 1 223 327)" fill="#004040" stroke="none"><tspan dx="0 " x="0" y="9">+ </tspan></text><text transform="matrix(1 0 0 1 240 327)" fill="#004040" stroke="none"><tspan dx="0 " x="0" y="9">isMultipleMatch(): EBoolean</tspan></text><rect fill="#FFFFFF" stroke="none" x="21" y="329" width="163" height="79" /><rect x="21" y="329" width="163" height="80" /><text transform="matrix(1 0 0 1 81 335)" fill="#000000" stroke="none"><tspan dx="0 " x="0" y="9">«EClass»</tspan></text><text transform="matrix(1 0 0 1 55 348)" fill="#000000" font-weight="bold" stroke="none"><desc xmlns:eadoc="http://www.siemens.com/eauml/doc"><eadoc:guid>EAID_FECB6F25_522B_4884_8BE7_99E3FF65E73C</eadoc:guid><eadoc:name>VariableReference</eadoc:name><eadoc:type>Class</eadoc:type><eadoc:note></eadoc:note></desc><tspan dx="0 " x="0" y="9">VariableReference</tspan></text><path d="M21 365H184" /><text transform="matrix(1 0 0 1 26 369)" fill="#004040" stroke="none"><tspan dx="0 " x="0" y="9">+ </tspan></text><text transform="matrix(1 0 0 1 43 369)" fill="#004040" stroke="none"><tspan dx="0 " x="0" y="9">isConstructed(): EBoolean</tspan></text><text transform="matrix(1 0 0 1 26 382)" fill="#004040" stroke="none"><tspan dx="0 " x="0" y="9">+ </tspan></text><text transform="matrix(1 0 0 1 43 382)" fill="#004040" stroke="none"><tspan dx="0 " x="0" y="9">isFree(): EBoolean</tspan></text><text transform="matrix(1 0 0 1 26 395)" fill="#004040" stroke="none"><tspan dx="0 " x="0" y="9">+ </tspan></text><text transform="matrix(1 0 0 1 43 395)" fill="#004040" stroke="none"><tspan dx="0 " x="0" y="9">isReassigned(): EBoolean</tspan></text><rect fill="#FFFFFF" stroke="none" x="1464" y="287" width="106" height="79" /><rect x="1464" y="287" width="106" height="80" /><text transform="matrix(1 0 0 1 1466 290)" fill="#000000" font-style="italic" stroke="none"><tspan dx="0 " x="0" y="9">CommentableElement</tspan><tspan dx="0 " x="31" y="22">NamedElement</tspan></text><text transform="matrix(1 0 0 1 1496 322)" fill="#000000" stroke="none"><tspan dx="0 " x="0" y="9">«EClass»</tspan></text><text transform="matrix(1 0 0 1 1491 335)" fill="#000000" font-weight="bold" font-style="italic" stroke="none"><desc xmlns:eadoc="http://www.siemens.com/eauml/doc"><eadoc:guid>EAID_6172A76C_A5DA_4175_BB39_6896AC33D168</eadoc:guid><eadoc:name>ActivityNode</eadoc:name><eadoc:type>Class</eadoc:type><eadoc:note>An ActivityNode represents a single action in the control flow.</eadoc:note></desc><tspan dx="0 " x="0" y="9">activities::</tspan><tspan dx="0 " x="-6" y="20">ActivityNode</tspan></text><rect fill="#FFFFFF" stroke="none" x="16" y="82" width="222" height="100" /><rect x="16" y="82" width="222" height="101" /><text transform="matrix(1 0 0 1 147 85)" fill="#000000" font-style="italic" stroke="none"><tspan dx="0 " x="0" y="9">ConstraintVariable</tspan></text><text transform="matrix(1 0 0 1 106 104)" fill="#000000" stroke="none"><tspan dx="0 " x="0" y="9">«EClass»</tspan></text><text transform="matrix(1 0 0 1 16 117)" fill="#000000" font-weight="bold" font-style="italic" stroke="none"><desc xmlns:eadoc="http://www.siemens.com/eauml/doc"><eadoc:guid>EAID_03362D4B_23C2_4cb9_801E_8CC18AC526FC</eadoc:guid><eadoc:name>Variable</eadoc:name><eadoc:type>Class</eadoc:type><eadoc:note></eadoc:note></desc><tspan dx="0 " x="0" y="9">org_gervarro_democles_specification_emf:</tspan><tspan dx="0 " x="88" y="20">:Variable</tspan></text><path d="M16 144H238" /><text transform="matrix(1 0 0 1 21 148)" fill="#8B0000" stroke="none"><tspan dx="0 " x="0" y="9">- </tspan></text><text transform="matrix(1 0 0 1 38 148)" fill="#8B0000" stroke="none"><tspan dx="0 " x="0" y="9">name: EString</tspan></text><rect fill="#FFFFFF" stroke="none" x="360" y="94" width="222" height="69" /><rect x="360" y="94" width="222" height="70" /><text transform="matrix(1 0 0 1 450 100)" fill="#000000" stroke="none"><tspan dx="0 " x="0" y="9">«EClass»</tspan></text><text transform="matrix(1 0 0 1 360 113)" fill="#000000" font-weight="bold" stroke="none"><desc xmlns:eadoc="http://www.siemens.com/eauml/doc"><eadoc:guid>EAID_4ED77136_981E_440a_BD06_478FE22E1AE0</eadoc:guid><eadoc:name>Pattern</eadoc:name><eadoc:type>Class</eadoc:type><eadoc:note></eadoc:note></desc><tspan dx="0 " x="0" y="9">org_gervarro_democles_specification_emf:</tspan><tspan dx="0 " x="91" y="21">:Pattern</tspan></text><path d="M360 142H582" /><text transform="matrix(1 0 0 1 365 146)" fill="#8B0000" stroke="none"><tspan dx="0 " x="0" y="9">- </tspan></text><text transform="matrix(1 0 0 1 382 146)" fill="#8B0000" stroke="none"><tspan dx="0 " x="0" y="9">name: EString</tspan></text><rect fill="#FFFFFF" stroke="none" x="133" y="569" width="194" height="147" /><rect x="133" y="569" width="194" height="148" /><text transform="matrix(1 0 0 1 247 572)" fill="#000000" font-style="italic" stroke="none"><tspan dx="0 " x="0" y="9">ENamedElement</tspan></text><text transform="matrix(1 0 0 1 209 591)" fill="#000000" stroke="none"><tspan dx="0 " x="0" y="9">«EClass»</tspan></text><text transform="matrix(1 0 0 1 184 604)" fill="#000000" font-weight="bold" font-style="italic" stroke="none"><desc xmlns:eadoc="http://www.siemens.com/eauml/doc"><eadoc:guid>EAID_A4C392C7_482A_43dd_87A4_43F8D0398D70</eadoc:guid><eadoc:name>EClassifier</eadoc:name><eadoc:type>Class</eadoc:type><eadoc:note></eadoc:note></desc><tspan dx="0 " x="0" y="9">Ecore::EClassifier</tspan></text><path d="M133 620H327" /><text transform="matrix(1 0 0 1 138 624)" fill="#8B0000" stroke="none"><tspan dx="0 " x="0" y="9">+ </tspan></text><text transform="matrix(1 0 0 1 155 624)" fill="#8B0000" stroke="none"><tspan dx="0 " x="0" y="9">defaultValue: EJavaObject</tspan></text><text transform="matrix(1 0 0 1 138 637)" fill="#8B0000" stroke="none"><tspan dx="0 " x="0" y="9">+ </tspan></text><text transform="matrix(1 0 0 1 155 637)" fill="#8B0000" stroke="none"><tspan dx="0 " x="0" y="9">instanceClass: EJavaClass</tspan></text><text transform="matrix(1 0 0 1 138 650)" fill="#8B0000" stroke="none"><tspan dx="0 " x="0" y="9">+ </tspan></text><text transform="matrix(1 0 0 1 155 650)" fill="#8B0000" stroke="none"><tspan dx="0 " x="0" y="9">instanceClassName: EString</tspan></text><text transform="matrix(1 0 0 1 138 663)" fill="#8B0000" stroke="none"><tspan dx="0 " x="0" y="9">+ </tspan></text><text transform="matrix(1 0 0 1 155 663)" fill="#8B0000" stroke="none"><tspan dx="0 " x="0" y="9">instanceTypeName: EString</tspan></text><path d="M133 680H327" /><text transform="matrix(1 0 0 1 138 684)" fill="#004040" stroke="none"><tspan dx="0 " x="0" y="9">+ </tspan></text><text transform="matrix(1 0 0 1 155 684)" fill="#004040" stroke="none"><tspan dx="0 " x="0" y="9">getClassifierID(): EInt</tspan></text><text transform="matrix(1 0 0 1 138 697)" fill="#004040" stroke="none"><tspan dx="0 " x="0" y="9">+ </tspan></text><text transform="matrix(1 0 0 1 155 697)" fill="#004040" stroke="none"><tspan dx="0 " x="0" y="9">isInstance(EJavaObject): EBoolean</tspan></text><rect fill="#FFFFFF" stroke="none" x="819" y="12" width="275" height="126" /><rect x="819" y="12" width="275" height="127" /><text transform="matrix(1 0 0 1 935 18)" fill="#000000" stroke="none"><tspan dx="0 " x="0" y="9">«EClass»</tspan></text><text transform="matrix(1 0 0 1 940 31)" fill="#000000" font-weight="bold" stroke="none"><desc xmlns:eadoc="http://www.siemens.com/eauml/doc"><eadoc:guid>EAID_F5BE2555_B27C_4f57_B8AE_A7ADE62E8173</eadoc:guid><eadoc:name>Visitor</eadoc:name><eadoc:type>Class</eadoc:type><eadoc:note></eadoc:note></desc><tspan dx="0 " x="0" y="9">Visitor</tspan></text><path d="M819 48h275" /><text transform="matrix(1 0 0 1 824 52)" fill="#004040" stroke="none"><tspan dx="0 " x="0" y="9">+ </tspan></text><text transform="matrix(1 0 0 1 841 52)" fill="#004040" stroke="none"><tspan dx="0 " x="0" y="9">visitNode(CFNode): void</tspan></text><text transform="matrix(1 0 0 1 824 65)" fill="#004040" stroke="none"><tspan dx="0 " x="0" y="9">+ </tspan></text><text transform="matrix(1 0 0 1 841 65)" fill="#004040" stroke="none"><tspan dx="0 " x="0" y="9">visitScope(Scope): void</tspan></text><text transform="matrix(1 0 0 1 824 78)" fill="#004040" stroke="none"><tspan dx="0 " x="0" y="9">+ </tspan></text><text transform="matrix(1 0 0 1 841 78)" fill="#004040" stroke="none"><tspan dx="0 " x="0" y="9">visitForEach(ForEach): void</tspan></text><text transform="matrix(1 0 0 1 824 91)" fill="#004040" stroke="none"><tspan dx="0 " x="0" y="9">+ </tspan></text><text transform="matrix(1 0 0 1 841 91)" fill="#004040" stroke="none"><tspan dx="0 " x="0" y="9">visitIfStatement(IfStatement): void</tspan></text><text transform="matrix(1 0 0 1 824 104)" fill="#004040" stroke="none"><tspan dx="0 " x="0" y="9">+ </tspan></text><text transform="matrix(1 0 0 1 841 104)" fill="#004040" stroke="none"><tspan dx="0 " x="0" y="9">visitHeadControlledLoop(HeadControlledLoop): void</tspan></text><text transform="matrix(1 0 0 1 824 117)" fill="#004040" stroke="none"><tspan dx="0 " x="0" y="9">+ </tspan></text><text transform="matrix(1 0 0 1 841 117)" fill="#004040" stroke="none"><tspan dx="0 " x="0" y="9">visitTailControlledLoop(TailControlledLoop): void</tspan></text><rect fill="#FFFFFF" stroke="none" x="1148" y="13" width="275" height="110" /><rect x="1148" y="13" width="275" height="111" /><text transform="matrix(1 0 0 1 1264 19)" fill="#000000" stroke="none"><tspan dx="0 " x="0" y="9">«EClass»</tspan></text><text transform="matrix(1 0 0 1 1218 32)" fill="#000000" font-weight="bold" stroke="none"><desc xmlns:eadoc="http://www.siemens.com/eauml/doc"><eadoc:guid>EAID_B1D49E92_2F1E_4435_887C_37319E2005C8</eadoc:guid><eadoc:name>UniformNoOperationVisitor</eadoc:name><eadoc:type>Class</eadoc:type><eadoc:note></eadoc:note></desc><tspan dx="0 " x="0" y="9">UniformNoOperationVisitor</tspan></text><path d="M1148 49h275" /><text transform="matrix(1 0 0 1 1153 53)" fill="#004040" stroke="none"><tspan dx="0 " x="0" y="9">+ </tspan></text><text transform="matrix(1 0 0 1 1170 53)" fill="#004040" stroke="none"><tspan dx="0 " x="0" y="9">visitForEach(ForEach): void</tspan></text><text transform="matrix(1 0 0 1 1153 66)" fill="#004040" stroke="none"><tspan dx="0 " x="0" y="9">+ </tspan></text><text transform="matrix(1 0 0 1 1170 66)" fill="#004040" stroke="none"><tspan dx="0 " x="0" y="9">visitHeadControlledLoop(HeadControlledLoop): void</tspan></text><text transform="matrix(1 0 0 1 1153 79)" fill="#004040" stroke="none"><tspan dx="0 " x="0" y="9">+ </tspan></text><text transform="matrix(1 0 0 1 1170 79)" fill="#004040" stroke="none"><tspan dx="0 " x="0" y="9">visitIfStatement(IfStatement): void</tspan></text><text transform="matrix(1 0 0 1 1153 92)" fill="#004040" stroke="none"><tspan dx="0 " x="0" y="9">+ </tspan></text><text transform="matrix(1 0 0 1 1170 92)" fill="#004040" stroke="none"><tspan dx="0 " x="0" y="9">visitTailControlledLoop(TailControlledLoop): void</tspan></text><rect fill="#FFFFFF" stroke="none" x="495" y="277" width="229" height="69" /><rect x="495" y="277" width="229" height="70" /><text transform="matrix(1 0 0 1 588 283)" fill="#000000" stroke="none"><tspan dx="0 " x="0" y="9">«EClass»</tspan></text><text transform="matrix(1 0 0 1 594 296)" fill="#000000" font-weight="bold" stroke="none"><desc xmlns:eadoc="http://www.siemens.com/eauml/doc"><eadoc:guid>EAID_A1A37998_8D65_4c79_A999_5B937D61DE86</eadoc:guid><eadoc:name>Action</eadoc:name><eadoc:type>Class</eadoc:type><eadoc:note></eadoc:note></desc><tspan dx="0 " x="0" y="9">Action</tspan></text><path d="M495 313H724" /><text transform="matrix(1 0 0 1 500 317)" fill="#004040" stroke="none"><tspan dx="0 " x="0" y="9">+ </tspan></text><text transform="matrix(1 0 0 1 517 317)" fill="#004040" stroke="none"><tspan dx="0 " x="0" y="9">hasReferencedFreeParameters(): EBoolean</tspan></text><rect fill="#FFFFFF" stroke="none" x="361" y="576" width="186" height="69" /><rect x="361" y="576" width="186" height="70" /><text transform="matrix(1 0 0 1 433 582)" fill="#000000" stroke="none"><tspan dx="0 " x="0" y="9">«EClass»</tspan></text><text transform="matrix(1 0 0 1 420 595)" fill="#000000" font-weight="bold" stroke="none"><desc xmlns:eadoc="http://www.siemens.com/eauml/doc"><eadoc:guid>EAID_BBCF47AE_746A_436d_A9C2_B67D62B4FE49</eadoc:guid><eadoc:name>NodeDeletion</eadoc:name><eadoc:type>Class</eadoc:type><eadoc:note></eadoc:note></desc><tspan dx="0 " x="0" y="9">NodeDeletion</tspan></text><rect fill="#FFFFFF" stroke="none" x="1200" y="462" width="153" height="69" /><rect x="1200" y="462" width="153" height="70" /><text transform="matrix(1 0 0 1 1255 468)" fill="#000000" stroke="none"><tspan dx="0 " x="0" y="9">«EClass»</tspan></text><text transform="matrix(1 0 0 1 1235 481)" fill="#000000" font-weight="bold" stroke="none"><desc xmlns:eadoc="http://www.siemens.com/eauml/doc"><eadoc:guid>EAID_0D98B378_E7EB_4809_A6AD_6EE69AE3DA1A</eadoc:guid><eadoc:name>ReturnStatement</eadoc:name><eadoc:type>Class</eadoc:type><eadoc:note></eadoc:note></desc><tspan dx="0 " x="0" y="9">ReturnStatement</tspan></text><rect fill="#FFFFFF" stroke="none" x="130" y="434" width="153" height="69" /><rect x="130" y="434" width="153" height="70" /><text transform="matrix(1 0 0 1 185 440)" fill="#000000" stroke="none"><tspan dx="0 " x="0" y="9">«EClass»</tspan></text><text transform="matrix(1 0 0 1 130 453)" fill="#000000" font-weight="bold" stroke="none"><desc xmlns:eadoc="http://www.siemens.com/eauml/doc"><eadoc:guid>EAID_76698335_6BE1_4562_81A1_638016D73518</eadoc:guid><eadoc:name>SingleResultPatternInvocation</eadoc:name><eadoc:type>Class</eadoc:type><eadoc:note></eadoc:note></desc><tspan dx="0 " x="0" y="9">SingleResultPatternInvocation</tspan></text><rect fill="#FFFFFF" stroke="none" x="310" y="380" width="163" height="69" /><rect x="310" y="380" width="163" height="70" /><text transform="matrix(1 0 0 1 370 386)" fill="#000000" stroke="none"><tspan dx="0 " x="0" y="9">«EClass»</tspan></text><text transform="matrix(1 0 0 1 327 399)" fill="#000000" font-weight="bold" stroke="none"><desc xmlns:eadoc="http://www.siemens.com/eauml/doc"><eadoc:guid>EAID_54740BBF_F978_48d3_A9A8_DA0CA3D8125F</eadoc:guid><eadoc:name>RegularPatternInvocation</eadoc:name><eadoc:type>Class</eadoc:type><eadoc:note></eadoc:note></desc><tspan dx="0 " x="0" y="9">RegularPatternInvocation</tspan></text><path d="M310 416H473" /><text transform="matrix(1 0 0 1 315 420)" fill="#004040" stroke="none"><tspan dx="0 " x="0" y="9">+ </tspan></text><text transform="matrix(1 0 0 1 332 420)" fill="#004040" stroke="none"><tspan dx="0 " x="0" y="9">isMultipleMatch(): EBoolean</tspan></text><rect fill="#FFFFFF" stroke="none" x="529" y="870" width="175" height="69" /><rect x="529" y="870" width="175" height="70" /><text transform="matrix(1 0 0 1 586 876)" fill="#000000" stroke="none"><tspan dx="0 " x="0" y="9">«EDatatype»</tspan></text><text transform="matrix(1 0 0 1 589 889)" fill="#000000" font-weight="bold" stroke="none"><desc xmlns:eadoc="http://www.siemens.com/eauml/doc"><eadoc:guid>EAID_6FE38637_6C5E_4552_8025_1606373217B1</eadoc:guid><eadoc:name>Adornment</eadoc:name><eadoc:type>Class</eadoc:type><eadoc:note></eadoc:note></desc><tspan dx="0 " x="0" y="9">Adornment</tspan></text><rect fill="#FFFFFF" stroke="none" x="1001" y="463" width="153" height="69" /><rect x="1001" y="463" width="153" height="70" /><text transform="matrix(1 0 0 1 1056 469)" fill="#000000" stroke="none"><tspan dx="0 " x="0" y="9">«EClass»</tspan></text><text transform="matrix(1 0 0 1 1030 482)" fill="#000000" font-weight="bold" stroke="none"><desc xmlns:eadoc="http://www.siemens.com/eauml/doc"><eadoc:guid>EAID_27F9ECBA_AAB4_42f5_801D_5A03ABE1ADCA</eadoc:guid><eadoc:name>ContinueStatement</eadoc:name><eadoc:type>Class</eadoc:type><eadoc:note></eadoc:note></desc><tspan dx="0 " x="0" y="9">ContinueStatement</tspan></text><rect fill="#FFFFFF" stroke="none" x="1167" y="694" width="153" height="69" /><rect x="1167" y="694" width="153" height="70" /><text transform="matrix(1 0 0 1 1222 700)" fill="#000000" stroke="none"><tspan dx="0 " x="0" y="9">«EClass»</tspan></text><text transform="matrix(1 0 0 1 1205 713)" fill="#000000" font-weight="bold" font-style="italic" stroke="none"><desc xmlns:eadoc="http://www.siemens.com/eauml/doc"><eadoc:guid>EAID_F3AD11C7_A225_4b21_A1ED_9D59560F858D</eadoc:guid><eadoc:name>RepetitionNode</eadoc:name><eadoc:type>Class</eadoc:type><eadoc:note></eadoc:note></desc><tspan dx="0 " x="0" y="9">RepetitionNode</tspan></text><path d="M1167 729h153" /><text transform="matrix(1 0 0 1 1172 733)" fill="#004040" stroke="none"><tspan dx="0 " x="0" y="9">+ </tspan></text><text transform="matrix(1 0 0 1 1189 733)" fill="#004040" stroke="none"><tspan dx="0 " x="0" y="9">hasShortcuts(): EBoolean</tspan></text><rect fill="#FFFFFF" stroke="none" x="309" y="485" width="153" height="69" /><rect x="309" y="485" width="153" height="70" /><text transform="matrix(1 0 0 1 364 491)" fill="#000000" stroke="none"><tspan dx="0 " x="0" y="9">«EClass»</tspan></text><text transform="matrix(1 0 0 1 321 504)" fill="#000000" font-weight="bold" stroke="none"><desc xmlns:eadoc="http://www.siemens.com/eauml/doc"><eadoc:guid>EAID_F4CA28AC_4E45_4ff2_8D99_64740510894E</eadoc:guid><eadoc:name>BindingPatternInvocation</eadoc:name><eadoc:type>Class</eadoc:type><eadoc:note></eadoc:note></desc><tspan dx="0 " x="0" y="9">BindingPatternInvocation</tspan></text><path d="M556 277V203m0 0H456m0 0v86m0 0h39m0 0l-15 6m15 -6l-15 -6" /><path d="M556 277l6 -15m-6 15l-6 -15" /><path d="M1305 801V764" /><path fill="#FFFFFF" d="M1311 780h-12l6 -16l6 16" /><path d="M545 738H223m0 0V717m0 0l6 15m-6 -15l-6 15" /><path d="M220 504v65m0 0l-6 -15m6 15l6 -15" /><path d="M1148 70h-53" /><path fill="#FFFFFF" d="M1111 64V76l-16 -6l16 -6" /><path d="M1126 319l-401 2" /><path fill="#000000" d="M1116 324l10 -5l-10 -5l-10 5l10 5" /><path d="M725 321l15 -6m-15 6l15 6" /><path d="M1106 319l-15 -6m15 6l-15 6" /><path d="M579 702V347m0 0l6 15m-6 -15l-6 15" /><path d="M579 702l6 -15m-6 15l-6 -15" /><path d="M360 128H239" /><path fill="#000000" d="M350 133l10 -5l-10 -5l-10 5l10 5" /><path d="M239 128l15 -6m-15 6l15 6" /><path d="M512 576L511 347" /><path fill="#FFFFFF" d="M517 363H505l6 -16l6 16" /><path d="M52 329V183m0 0l6 15M52 183l-6 15" /><path d="M1126 286l-401 2m0 0l15 -6m-15 6l15 6" /><path d="M671 702V347m0 0l6 15m-6 -15l-6 15" /><path d="M671 702l6 -15m-6 15l-6 -15" /><path d="M545 717H425m0 0V646m0 0l6 15m-6 -15l-6 15" /><path d="M545 717l-15 -6m15 6l-15 6" /><path d="M396 485V450" /><path fill="#FFFFFF" d="M402 466H390l6 -16l6 16" /><path d="M1218 795V764" /><path fill="#FFFFFF" d="M1224 780h-12l6 -16l6 16" /><path d="M1329 362h96m0 0V730m0 0H1321m0 0l15 -6m-15 6l15 6" /><path d="M1329 362l15 6m-15 -6l15 -6" /><path d="M448 310l47 1" /><path fill="#FFFFFF" d="M479 317V305l16 6l-16 6" /><path d="M907 660V771m0 0H699" /><path fill="#000000" d="M912 670l-5 -10l-5 10l5 10l5 -10" /><path d="M699 771l15 -6m-15 6l15 6" /><path d="M907 680l-6 15m6 -15l6 15" /><path d="M905 590V346m0 0h221" /><path fill="#000000" d="M900 580l5 10l5 -10l-5 -10l-5 10" /><path d="M1126 346l-15 6m15 -6l-15 -6" /><path d="M905 570l6 -15m-6 15l-6 -15" /><path d="M1233 462V370" /><path fill="#FFFFFF" d="M1239 386h-12l6 -16l6 16" /><path d="M1146 463V370" /><path fill="#FFFFFF" d="M1152 386h-12l6 -16l6 16" /><path d="M1329 306h61m0 0V234m0 0h-76m0 0v43m0 0l-6 -15m6 15l6 -15" /><path d="M1329 306l15 6m-15 -6l15 -6" /><path d="M1092 624h-90" /><path fill="#000000" d="M1082 629l10 -5l-10 -5l-10 5l10 5" /><path d="M1002 624l15 -6m-15 6l15 6" /><path d="M1072 624l-15 -6m15 6l-15 6" /><path d="M953 803L1147 660" /><path fill="#FFFFFF" d="M1138 674l-7 -9l16 -5l-9 14" /><path d="M407 275V164m0 0l6 15m-6 -15l-6 15" /><path d="M99 409V767m0 0H545m0 0l-15 6m15 -6l-15 -6" /><path d="M99 409l-6 15m6 -15l6 15" /><path d="M1172 590V370" /><path fill="#FFFFFF" d="M1178 386h-12l6 -16l6 16" /><path d="M1241 959l-52 -84" /><path fill="#FFFFFF" d="M1203 885l-11 7l-3 -17l14 10" /><path d="M1077 960l59 -85" /><path fill="#FFFFFF" d="M1132 892l-10 -7l14 -10l-4 17" /><path d="M351 380V345" /><path fill="#FFFFFF" d="M357 361H345l6 -16l6 16" /><path d="M250 434V345" /><path fill="#FFFFFF" d="M256 361H244l6 -16l6 16" /><path d="M218 303H127m0 0v26" /><path fill="#000000" d="M208 308l10 -5l-10 -5l-10 5l10 5" /><path d="M127 329l-6 -15m6 15l6 -15" /><path d="M198 303l-15 -6m15 6l-15 6" /><path d="M1329 333h135m0 0l-15 6m15 -6l-15 -6" /><path d="M1224 694V660" /><path fill="#FFFFFF" d="M1230 676h-12l6 -16l6 16" /><g transform="matrix(1 0 0 -1 680 674)"><rect fill="#FFFFFF" stroke="none" x="0" width="104" y="-11" height="11" /></g><text transform="matrix(1 0 0 1 680 674)" fill="#000000" stroke="none"><tspan dx="0 " x="0" y="9">+reassignedVariables</tspan></text><g transform="matrix(1 0 0 -1 642 679)"><rect fill="#FFFFFF" stroke="none" x="0" width="17" y="-11" height="11" /></g><text transform="matrix(1 0 0 1 642 679)" fill="#000000" stroke="none"><tspan dx="0 " x="0" y="9">0..*</tspan></text><g transform="matrix(1 0 0 -1 591 352)"><rect fill="#FFFFFF" stroke="none" x="0" width="75" y="-11" height="11" /></g><text transform="matrix(1 0 0 1 591 352)" fill="#000000" stroke="none"><tspan dx="0 " x="0" y="9">+reassignments</tspan></text><g transform="matrix(1 0 0 -1 683 352)"><rect fill="#FFFFFF" stroke="none" x="0" width="17" y="-11" height="11" /></g><text transform="matrix(1 0 0 1 683 352)" fill="#000000" stroke="none"><tspan dx="0 " x="0" y="9">0..*</tspan></text><g transform="matrix(1 0 0 -1 37 414)"><rect fill="#FFFFFF" stroke="none" x="0" width="56" y="-11" height="11" /></g><text transform="matrix(1 0 0 1 37 414)" fill="#000000" stroke="none"><tspan dx="0 " x="0" y="9">+references</tspan></text><g transform="matrix(1 0 0 -1 107 414)"><rect fill="#FFFFFF" stroke="none" x="0" width="17" y="-11" height="11" /></g><text transform="matrix(1 0 0 1 107 414)" fill="#000000" stroke="none"><tspan dx="0 " x="0" y="9">0..*</tspan></text><g transform="matrix(1 0 0 -1 515 747)"><rect fill="#FFFFFF" stroke="none" x="0" width="28" y="-11" height="11" /></g><text transform="matrix(1 0 0 1 515 747)" fill="#000000" stroke="none"><tspan dx="0 " x="0" y="9">+from</tspan></text><g transform="matrix(1 0 0 -1 536 772)"><rect fill="#FFFFFF" stroke="none" x="0" width="6" y="-11" height="11" /></g><text transform="matrix(1 0 0 1 536 772)" fill="#000000" stroke="none"><tspan dx="0 " x="0" y="9">1</tspan></text><g transform="matrix(1 0 0 -1 155 551)"><rect fill="#FFFFFF" stroke="none" x="0" width="59" y="-11" height="11" /></g><text transform="matrix(1 0 0 1 155 551)" fill="#000000" stroke="none"><tspan dx="0 " x="0" y="9">+returnType</tspan></text><g transform="matrix(1 0 0 -1 228 551)"><rect fill="#FFFFFF" stroke="none" x="0" width="19" y="-11" height="11" /></g><text transform="matrix(1 0 0 1 228 551)" fill="#000000" stroke="none"><tspan dx="0 " x="0" y="9">0..1</tspan></text><g transform="matrix(1 0 0 -1 459 669)"><rect fill="#FFFFFF" stroke="none" x="0" width="107" y="-11" height="11" /></g><text transform="matrix(1 0 0 1 459 669)" fill="#000000" stroke="none"><tspan dx="0 " x="0" y="9">+constructedVariables</tspan></text><g transform="matrix(1 0 0 -1 587 684)"><rect fill="#FFFFFF" stroke="none" x="0" width="17" y="-11" height="11" /></g><text transform="matrix(1 0 0 1 587 684)" fill="#000000" stroke="none"><tspan dx="0 " x="0" y="9">0..*</tspan></text><g transform="matrix(1 0 0 -1 524 377)"><rect fill="#FFFFFF" stroke="none" x="0" width="58" y="-11" height="11" /></g><text transform="matrix(1 0 0 1 524 377)" fill="#000000" stroke="none"><tspan dx="0 " x="0" y="9">+constructor</tspan></text><g transform="matrix(1 0 0 -1 558 360)"><rect fill="#FFFFFF" stroke="none" x="0" width="19" y="-11" height="11" /></g><text transform="matrix(1 0 0 1 558 360)" fill="#000000" stroke="none"><tspan dx="0 " x="0" y="9">0..1</tspan></text><g transform="matrix(1 0 0 -1 154 284)"><rect fill="#FFFFFF" stroke="none" x="0" width="57" y="-11" height="11" /></g><text transform="matrix(1 0 0 1 154 284)" fill="#000000" stroke="none"><tspan dx="0 " x="0" y="9">+invocation</tspan></text><g transform="matrix(1 0 0 -1 209 308)"><rect fill="#FFFFFF" stroke="none" x="0" width="6" y="-11" height="11" /></g><text transform="matrix(1 0 0 1 209 308)" fill="#000000" stroke="none"><tspan dx="0 " x="0" y="9">1</tspan></text><g transform="matrix(1 0 0 -1 61 311)"><rect fill="#FFFFFF" stroke="none" x="0" width="60" y="-11" height="11" /></g><text transform="matrix(1 0 0 1 61 311)" fill="#000000" stroke="none"><tspan dx="0 " x="0" y="9">+parameters</tspan></text><g transform="matrix(1 0 0 -1 135 311)"><rect fill="#FFFFFF" stroke="none" x="0" width="17" y="-11" height="11" /></g><text transform="matrix(1 0 0 1 135 311)" fill="#000000" stroke="none"><tspan dx="0 " x="0" y="9">0..*</tspan></text><g transform="matrix(1 0 0 -1 444 699)"><rect fill="#FFFFFF" stroke="none" x="0" width="102" y="-11" height="11" /></g><text transform="matrix(1 0 0 1 444 699)" fill="#000000" stroke="none"><tspan dx="0 " x="0" y="9">+destructedVariables</tspan></text><g transform="matrix(1 0 0 -1 526 722)"><rect fill="#FFFFFF" stroke="none" x="0" width="17" y="-11" height="11" /></g><text transform="matrix(1 0 0 1 526 722)" fill="#000000" stroke="none"><tspan dx="0 " x="0" y="9">0..*</tspan></text><g transform="matrix(1 0 0 -1 362 651)"><rect fill="#FFFFFF" stroke="none" x="0" width="57" y="-11" height="11" /></g><text transform="matrix(1 0 0 1 362 651)" fill="#000000" stroke="none"><tspan dx="0 " x="0" y="9">+destructors</tspan></text><g transform="matrix(1 0 0 -1 437 651)"><rect fill="#FFFFFF" stroke="none" x="0" width="17" y="-11" height="11" /></g><text transform="matrix(1 0 0 1 437 651)" fill="#000000" stroke="none"><tspan dx="0 " x="0" y="9">0..*</tspan></text><g transform="matrix(1 0 0 -1 29 188)"><rect fill="#FFFFFF" stroke="none" x="0" width="16" y="-11" height="11" /></g><text transform="matrix(1 0 0 1 29 188)" fill="#000000" stroke="none"><tspan dx="0 " x="0" y="9">+to</tspan></text><g transform="matrix(1 0 0 -1 64 188)"><rect fill="#FFFFFF" stroke="none" x="0" width="6" y="-11" height="11" /></g><text transform="matrix(1 0 0 1 64 188)" fill="#000000" stroke="none"><tspan dx="0 " x="0" y="9">1</tspan></text><g transform="matrix(1 0 0 -1 1428 315)"><rect fill="#FFFFFF" stroke="none" x="0" width="34" y="-11" height="11" /></g><text transform="matrix(1 0 0 1 1428 315)" fill="#000000" stroke="none"><tspan dx="0 " x="0" y="9">+origin</tspan></text><g transform="matrix(1 0 0 -1 1455 338)"><rect fill="#FFFFFF" stroke="none" x="0" width="6" y="-11" height="11" /></g><text transform="matrix(1 0 0 1 1455 338)" fill="#000000" stroke="none"><tspan dx="0 " x="0" y="9">1</tspan></text><g transform="matrix(1 0 0 -1 1060 605)"><rect fill="#FFFFFF" stroke="none" x="0" width="38" y="-11" height="11" /></g><text transform="matrix(1 0 0 1 1060 605)" fill="#000000" stroke="none"><tspan dx="0 " x="0" y="9">+parent</tspan></text><g transform="matrix(1 0 0 -1 1071 629)"><rect fill="#FFFFFF" stroke="none" x="0" width="19" y="-11" height="11" /></g><text transform="matrix(1 0 0 1 1071 629)" fill="#000000" stroke="none"><tspan dx="0 " x="0" y="9">0..1</tspan></text><g transform="matrix(1 0 0 -1 1005 606)"><rect fill="#FFFFFF" stroke="none" x="0" width="39" y="-11" height="11" /></g><text transform="matrix(1 0 0 1 1005 606)" fill="#000000" stroke="none"><tspan dx="0 " x="0" y="9">+scopes</tspan></text><g transform="matrix(1 0 0 -1 1005 629)"><rect fill="#FFFFFF" stroke="none" x="0" width="17" y="-11" height="11" /></g><text transform="matrix(1 0 0 1 1005 629)" fill="#000000" stroke="none"><tspan dx="0 " x="0" y="9">1..*</tspan></text><g transform="matrix(1 0 0 -1 1080 300)"><rect fill="#FFFFFF" stroke="none" x="0" width="41" y="-11" height="11" /></g><text transform="matrix(1 0 0 1 1080 300)" fill="#000000" stroke="none"><tspan dx="0 " x="0" y="9">+cfNode</tspan></text><g transform="matrix(1 0 0 -1 1122 325)"><rect fill="#FFFFFF" stroke="none" x="0" width="6" y="-11" height="11" /></g><text transform="matrix(1 0 0 1 1122 325)" fill="#000000" stroke="none"><tspan dx="0 " x="0" y="9">1</tspan></text><g transform="matrix(1 0 0 -1 728 303)"><rect fill="#FFFFFF" stroke="none" x="0" width="41" y="-11" height="11" /></g><text transform="matrix(1 0 0 1 728 303)" fill="#000000" stroke="none"><tspan dx="0 " x="0" y="9">+actions</tspan></text><g transform="matrix(1 0 0 -1 731 325)"><rect fill="#FFFFFF" stroke="none" x="0" width="17" y="-11" height="11" /></g><text transform="matrix(1 0 0 1 731 325)" fill="#000000" stroke="none"><tspan dx="0 " x="0" y="9">0..*</tspan></text><g transform="matrix(1 0 0 -1 565 248)"><rect fill="#FFFFFF" stroke="none" x="0" width="49" y="-11" height="11" /></g><text transform="matrix(1 0 0 1 565 248)" fill="#000000" stroke="none"><tspan dx="0 " x="0" y="9">+prev 0..1</tspan></text><g transform="matrix(1 0 0 -1 464 255)"><rect fill="#FFFFFF" stroke="none" x="0" width="27" y="-11" height="11" /></g><text transform="matrix(1 0 0 1 464 255)" fill="#000000" stroke="none"><tspan dx="0 " x="0" y="9">+next</tspan></text><g transform="matrix(1 0 0 -1 464 268)"><rect fill="#FFFFFF" stroke="none" x="0" width="19" y="-11" height="11" /></g><text transform="matrix(1 0 0 1 464 268)" fill="#000000" stroke="none"><tspan dx="0 " x="0" y="9">0..1</tspan></text><g transform="matrix(1 0 0 -1 358 178)"><rect fill="#FFFFFF" stroke="none" x="0" width="41" y="-11" height="11" /></g><text transform="matrix(1 0 0 1 358 178)" fill="#000000" stroke="none"><tspan dx="0 " x="0" y="9">+pattern</tspan></text><g transform="matrix(1 0 0 -1 419 169)"><rect fill="#FFFFFF" stroke="none" x="0" width="6" y="-11" height="11" /></g><text transform="matrix(1 0 0 1 419 169)" fill="#000000" stroke="none"><tspan dx="0 " x="0" y="9">1</tspan></text><g transform="matrix(1 0 0 -1 868 569)"><rect fill="#FFFFFF" stroke="none" x="0" width="34" y="-11" height="11" /></g><text transform="matrix(1 0 0 1 868 569)" fill="#000000" stroke="none"><tspan dx="0 " x="0" y="9">+scope</tspan></text><g transform="matrix(1 0 0 -1 916 588)"><rect fill="#FFFFFF" stroke="none" x="0" width="6" y="-11" height="11" /></g><text transform="matrix(1 0 0 1 916 588)" fill="#000000" stroke="none"><tspan dx="0 " x="0" y="9">1</tspan></text><g transform="matrix(1 0 0 -1 1060 341)"><rect fill="#FFFFFF" stroke="none" x="0" width="47" y="-11" height="11" /></g><text transform="matrix(1 0 0 1 1060 341)" fill="#000000" stroke="none"><tspan dx="0 " x="0" y="9">+contents</tspan></text><g transform="matrix(1 0 0 -1 1102 363)"><rect fill="#FFFFFF" stroke="none" x="0" width="17" y="-11" height="11" /></g><text transform="matrix(1 0 0 1 1102 363)" fill="#000000" stroke="none"><tspan dx="0 " x="0" y="9">0..*</tspan></text><g transform="matrix(1 0 0 -1 242 110)"><rect fill="#FFFFFF" stroke="none" x="0" width="104" y="-11" height="11" /></g><text transform="matrix(1 0 0 1 242 110)" fill="#000000" stroke="none"><tspan dx="0 " x="0" y="9">+symbolicParameters</tspan></text><g transform="matrix(1 0 0 -1 242 133)"><rect fill="#FFFFFF" stroke="none" x="0" width="17" y="-11" height="11" /></g><text transform="matrix(1 0 0 1 242 133)" fill="#000000" stroke="none"><tspan dx="0 " x="0" y="9">0..*</tspan></text><g transform="matrix(1 0 0 -1 878 674)"><rect fill="#FFFFFF" stroke="none" x="0" width="34" y="-11" height="11" /></g><text transform="matrix(1 0 0 1 878 674)" fill="#000000" stroke="none"><tspan dx="0 " x="0" y="9">+scope</tspan></text><g transform="matrix(1 0 0 -1 921 669)"><rect fill="#FFFFFF" stroke="none" x="0" width="6" y="-11" height="11" /></g><text transform="matrix(1 0 0 1 921 669)" fill="#000000" stroke="none"><tspan dx="0 " x="0" y="9">1</tspan></text><g transform="matrix(1 0 0 -1 703 750)"><rect fill="#FFFFFF" stroke="none" x="0" width="50" y="-11" height="11" /></g><text transform="matrix(1 0 0 1 703 750)" fill="#000000" stroke="none"><tspan dx="0 " x="0" y="9">+variables</tspan></text><g transform="matrix(1 0 0 -1 704 775)"><rect fill="#FFFFFF" stroke="none" x="0" width="17" y="-11" height="11" /></g><text transform="matrix(1 0 0 1 704 775)" fill="#000000" stroke="none"><tspan dx="0 " x="0" y="9">0..*</tspan></text><g transform="matrix(1 0 0 -1 728 270)"><rect fill="#FFFFFF" stroke="none" x="0" width="63" y="-11" height="11" /></g><text transform="matrix(1 0 0 1 728 270)" fill="#000000" stroke="none"><tspan dx="0 " x="0" y="9">+mainAction</tspan></text><g transform="matrix(1 0 0 -1 728 293)"><rect fill="#FFFFFF" stroke="none" x="0" width="19" y="-11" height="11" /></g><text transform="matrix(1 0 0 1 728 293)" fill="#000000" stroke="none"><tspan dx="0 " x="0" y="9">0..1</tspan></text><g transform="matrix(1 0 0 -1 189 722)"><rect fill="#FFFFFF" stroke="none" x="0" width="27" y="-11" height="11" /></g><text transform="matrix(1 0 0 1 189 722)" fill="#000000" stroke="none"><tspan dx="0 " x="0" y="9">+type</tspan></text><g transform="matrix(1 0 0 -1 235 722)"><rect fill="#FFFFFF" stroke="none" x="0" width="6" y="-11" height="11" /></g><text transform="matrix(1 0 0 1 235 722)" fill="#000000" stroke="none"><tspan dx="0 " x="0" y="9">1</tspan></text><g transform="matrix(1 0 0 -1 1332 344)"><rect fill="#FFFFFF" stroke="none" x="0" width="53" y="-11" height="11" /></g><text transform="matrix(1 0 0 1 1332 344)" fill="#000000" stroke="none"><tspan dx="0 " x="0" y="9">+lastNodes</tspan></text><g transform="matrix(1 0 0 -1 1332 367)"><rect fill="#FFFFFF" stroke="none" x="0" width="17" y="-11" height="11" /></g><text transform="matrix(1 0 0 1 1332 367)" fill="#000000" stroke="none"><tspan dx="0 " x="0" y="9">0..*</tspan></text><g transform="matrix(1 0 0 -1 1324 712)"><rect fill="#FFFFFF" stroke="none" x="0" width="41" y="-11" height="11" /></g><text transform="matrix(1 0 0 1 1324 712)" fill="#000000" stroke="none"><tspan dx="0 " x="0" y="9">+header</tspan></text><g transform="matrix(1 0 0 -1 1324 735)"><rect fill="#FFFFFF" stroke="none" x="0" width="19" y="-11" height="11" /></g><text transform="matrix(1 0 0 1 1324 735)" fill="#000000" stroke="none"><tspan dx="0 " x="0" y="9">0..1</tspan></text><g transform="matrix(1 0 0 -1 1349 311)"><rect fill="#FFFFFF" stroke="none" x="0" width="49" y="-11" height="11" /></g><text transform="matrix(1 0 0 1 1349 311)" fill="#000000" stroke="none"><tspan dx="0 " x="0" y="9">+prev 0..1</tspan></text><g transform="matrix(1 0 0 -1 1326 257)"><rect fill="#FFFFFF" stroke="none" x="0" width="49" y="-11" height="11" /></g><text transform="matrix(1 0 0 1 1326 257)" fill="#000000" stroke="none"><tspan dx="0 " x="0" y="9">+next 0..1</tspan></text></g></g></g></g></svg>